<svg version="1.1" xmlns="http://www.w3.org/2000/svg" xmlns:xlink="http://www.w3.org/1999/xlink" width="132.96769" height="130.65629" viewBox="0,0,132.96769,130.65629"><g transform="translate(-171.59984,-112.34054)"><g data-paper-data="{&quot;isPaintingLayer&quot;:true}" fill-rule="nonzero" stroke-linecap="butt" stroke-linejoin="miter" stroke-miterlimit="10" stroke-dasharray="" stroke-dashoffset="0" style="mix-blend-mode: normal"><g data-paper-data="{&quot;index&quot;:null}" stroke="none" stroke-width="1"><path d="M213.13449,207.304c1.789,0.409 10.435,8.443 11.302,10.194c0.856,1.725 -8.206,15.606 -15.098,19.889c-2.314,-1.215 -19.584,-16.935 -15.231,-22.422c3.196,-4.029 8.169,0.558 10.685,2.264c0.957,-2.017 6.002,-10.461 8.342,-9.925z" fill="#000000"/><path d="M220.97549,217.381c-1.557,5.88 -4.755,11.095 -9.235,14.908c-4.746,-3.596 -11.658,-10.388 -14.003,-16.001c3.108,0.17 6.705,4.564 7.301,4.581c2.966,-3.251 5.177,-7.156 8.012,-10.525c0.931,0.491 7.071,5.896 7.925,7.037z" fill="#4853a9"/><path d="M210.53149,233.281l-1.493,1.471c-3.628,-3.663 -13.326,-11.176 -13.423,-16.711c-0.003,-0.174 0.179,-0.716 0.228,-0.906c1.051,4.52 10.671,13.661 14.688,16.146z" fill="#84a4f2"/></g><g data-paper-data="{&quot;index&quot;:null}" stroke="none" stroke-width="1"><path d="M194.96615,236.33716c-0.233,-0.007 -0.456,-0.096 -0.631,-0.25c-2.299,-2.031 -4.428,-4.186 -6.487,-6.269c-1.965,-1.989 -3.995,-4.043 -6.19,-6.008c-0.889,0.132 -1.741,0.455 -2.637,0.795c-1.243,0.472 -2.529,0.959 -4.006,0.959c-0.281,0 -0.566,-0.018 -0.858,-0.057c-0.43,-0.057 -0.774,-0.384 -0.852,-0.81c-0.078,-0.426 0.126,-0.853 0.507,-1.06c1.235,-0.67 2.586,-1.031 3.893,-1.381c0.446,-0.119 0.88,-0.236 1.304,-0.361c-1.588,-1.263 -4.2,-3.276 -5.903,-4.253c-0.401,-0.23 -0.592,-0.703 -0.464,-1.146c0.124,-0.429 0.518,-0.722 0.961,-0.722c0.014,0 0.028,0.001 0.042,0.001c5.043,0.214 8.883,4.415 11.979,7.879l3.765,-3.189c0.185,-0.157 0.415,-0.237 0.646,-0.237c0.181,0 0.364,0.049 0.526,0.15c0.369,0.228 0.548,0.668 0.444,1.089c-0.399,1.624 -1.542,2.675 -2.647,3.693c-0.251,0.23 -0.493,0.453 -0.723,0.679c0.734,0.753 2.541,2.168 3.922,3.25c1.487,1.164 3.019,2.364 4.101,3.358c0.86,-0.129 1.715,-0.443 2.612,-0.772c0.27,-0.099 0.542,-0.198 0.816,-0.294c0.107,-0.037 0.218,-0.056 0.329,-0.056c0.186,0 0.372,0.052 0.534,0.155c0.258,0.163 0.427,0.435 0.46,0.738l0.205,1.896c0.029,0.27 -0.053,0.541 -0.227,0.749c-0.174,0.208 -0.425,0.336 -0.696,0.356c-0.52,0.037 -1.096,0.246 -1.705,0.468c-0.837,0.304 -1.786,0.65 -2.865,0.65z" fill="#8e5c00"/><path d="M173.60115,216.77316c2.683,1.538 7.418,5.462 7.418,5.462c-2.168,0.955 -4.68,1.167 -6.731,2.28c0.247,0.033 0.489,0.048 0.727,0.048c2.456,0 4.479,-1.604 6.975,-1.798c4.678,4.137 8.443,8.539 13.008,12.57c0.041,0.001 0.083,0.002 0.124,0.002c1.658,0 3.052,-1.012 4.499,-1.116l-0.205,-1.896c-1.368,0.477 -2.683,1.061 -4.106,1.167c-2.737,-2.652 -9.896,-7.438 -8.812,-7.916c1.312,-1.432 3.08,-2.493 3.537,-4.349l-4.508,3.819c-3.139,-3.5 -6.962,-8.062 -11.926,-8.273M173.60015,214.77316c0.028,0 0.058,0 0.086,0.002c5.1,0.216 8.925,4.046 12.031,7.487l3.023,-2.561c0.371,-0.314 0.831,-0.474 1.293,-0.474c0.364,0 0.729,0.099 1.054,0.3c0.736,0.457 1.096,1.336 0.889,2.178c-0.463,1.878 -1.732,3.076 -2.872,4.125c0.864,0.744 2.125,1.731 3.069,2.471c1.338,1.048 2.713,2.125 3.783,3.07c0.629,-0.144 1.285,-0.385 1.968,-0.635c0.276,-0.102 0.553,-0.203 0.832,-0.3c0.214,-0.075 0.437,-0.111 0.658,-0.111c0.374,0 0.745,0.105 1.068,0.31c0.516,0.326 0.854,0.869 0.92,1.475l0.205,1.896c0.059,0.54 -0.105,1.08 -0.453,1.497c-0.348,0.417 -0.851,0.674 -1.392,0.713c-0.382,0.027 -0.894,0.213 -1.435,0.411c-0.87,0.316 -1.953,0.71 -3.208,0.71c-0.062,0 -0.123,-0.001 -0.186,-0.003c-0.466,-0.014 -0.913,-0.191 -1.263,-0.5c-2.324,-2.053 -4.466,-4.22 -6.537,-6.315c-1.844,-1.866 -3.745,-3.79 -5.779,-5.635c-0.643,0.147 -1.299,0.396 -1.981,0.655c-1.266,0.48 -2.7,1.024 -4.36,1.024c-0.331,0 -0.664,-0.022 -0.99,-0.065c-0.858,-0.114 -1.546,-0.768 -1.703,-1.62c-0.157,-0.852 0.252,-1.708 1.014,-2.121c1.136,-0.616 2.323,-0.981 3.49,-1.3c-1.409,-1.081 -3.044,-2.275 -4.219,-2.949c-0.8,-0.458 -1.183,-1.405 -0.926,-2.291c0.25,-0.858 1.035,-1.444 1.921,-1.444z" fill="#000000"/></g><g data-paper-data="{&quot;index&quot;:null}"><path d="M209.27449,186.341c6.583,-8.49 18.338,-12.622 28.934,-11.923c10.81,0.715 17.517,-0.198 27.982,12.622c4.363,5.343 4.339,14.388 3.133,20.736c-5.25,27.712 -60.833,18.247 -65.124,-2.657c-1.287,-6.279 0.7,-13.136 5.075,-18.778z" fill="#ffffff" stroke="#000000" stroke-width="2"/><path d="M214.81449,190.507c-1.44091,0 -2.609,-1.08616 -2.609,-2.426c0,-1.33984 1.16809,-2.426 2.609,-2.426c1.44091,0 2.609,1.08616 2.609,2.426c0,1.33984 -1.16809,2.426 -2.609,2.426z" fill="#8e5c00" stroke="none" stroke-width="1"/><path d="M210.92049,200.169c-1.43981,0 -2.607,-1.08616 -2.607,-2.426c0,-1.33984 1.16719,-2.426 2.607,-2.426c1.43981,0 2.607,1.08616 2.607,2.426c0,1.33984 -1.16719,2.426 -2.607,2.426z" fill="#8e5c00" stroke="none" stroke-width="1"/><path d="M211.64449,209.738c-1.44036,0 -2.608,-1.08616 -2.608,-2.426c0,-1.33984 1.16764,-2.426 2.608,-2.426c1.44036,0 2.608,1.08616 2.608,2.426c0,1.33984 -1.16764,2.426 -2.608,2.426z" fill="#8e5c00" stroke="none" stroke-width="1"/></g><g data-paper-data="{&quot;index&quot;:null}"><path d="M219.51249,164.432c4.072,-5.251 11.343,-7.807 17.896,-7.374c6.687,0.442 10.835,-0.124 17.308,7.806c2.699,3.306 2.684,8.9 1.938,12.827c-3.247,17.141 -37.627,11.286 -40.281,-1.644c-0.797,-3.883 0.433,-8.125 3.139,-11.615z" fill="#ffffff" stroke="#000000" stroke-width="2"/><path d="M221.47249,171.276c-1.44036,0 -2.608,-1.08571 -2.608,-2.425c0,-1.33929 1.16764,-2.425 2.608,-2.425c1.44036,0 2.608,1.08571 2.608,2.425c0,1.33929 -1.16764,2.425 -2.608,2.425z" fill="#8e5c00" stroke="none" stroke-width="1"/><path d="M220.47249,178.592c-1.44036,0 -2.608,-1.08571 -2.608,-2.425c0,-1.33929 1.16764,-2.425 2.608,-2.425c1.44036,0 2.608,1.08571 2.608,2.425c0,1.33929 -1.16764,2.425 -2.608,2.425z" fill="#8e5c00" stroke="none" stroke-width="1"/></g><g data-paper-data="{&quot;index&quot;:null}" stroke="none" stroke-width="1"><path d="M239.08449,220.059c1.221,-1.371 12.426,-5.076 14.378,-4.992c1.925,0.081 9.722,14.709 10.155,22.812c-2.18,1.443 -24.275,9.003 -26.987,2.545c-1.992,-4.741 4.425,-6.889 7.132,-8.272c-1.306,-1.809 -6.276,-10.298 -4.678,-12.093z" fill="#000000"/><path d="M251.69249,218.045c4.402,4.197 7.431,9.511 8.615,15.275c-5.438,2.426 -14.719,5.211 -20.768,4.562c1.647,-2.641 7.231,-3.676 7.531,-4.19c-1.42,-4.166 -3.776,-7.985 -5.363,-12.092c0.88,-0.58 8.574,-3.356 9.985,-3.555z" fill="#4853a9"/><path d="M260.59349,234.857l0.57,2.017c-4.958,1.414 -16.214,6.294 -21.11,3.712c-0.155,-0.081 -0.541,-0.502 -0.685,-0.637c4.468,1.257 17.113,-2.769 21.225,-5.092z" fill="#84a4f2"/></g><g data-paper-data="{&quot;index&quot;:null}" stroke="none" stroke-width="1"><path d="M303.28136,239.86551c-0.11142,0.13103 -0.25648,0.23215 -0.41894,0.29353c-0.28053,0.10143 -0.58998,0.07325 -0.84688,-0.07694c-0.4178,-0.24501 -3.51268,-2.26769 -4.1699,-3.49078c-1.9532,-3.63387 -2.82304,-3.78415 -6.06101,-4.34804c-0.70519,-0.12316 -1.50165,-0.26093 -2.41895,-0.4542c-3.92808,-0.82519 -8.57333,-1.7286 -13.33661,-2.19681c-0.87005,0.4875 -1.7367,0.95557 -2.59988,1.42265c-1.85896,1.00518 -3.61596,1.9553 -5.39063,3.07285c-0.12821,0.08131 -0.31534,0.21492 -0.53664,0.37328c-1.61044,1.14825 -2.92378,1.99651 -3.95134,1.62417c-0.43633,-0.15838 -0.75631,-0.51843 -0.87942,-0.98804c-0.01926,-0.07151 -0.03018,-0.14512 -0.03264,-0.21941l-0.00674,-0.19738c-0.00825,-0.25118 0.0779,-0.49296 0.2379,-0.68112c0.04081,-0.04799 0.08684,-0.09286 0.13756,-0.13243c3.51228,-2.80744 8.40104,-5.77018 11.88291,-7.76074c0.15119,-0.08672 0.32206,-0.13175 0.49658,-0.13167c2.08939,0.002 4.16406,0.62024 6.17184,1.21836c1.63117,0.48527 3.17374,0.94508 4.69435,1.08956c0.722,0.06789 1.4148,0.23958 2.08218,0.40411c1.45291,0.35994 2.17848,0.48074 2.54837,0.04575c0.15483,-0.18207 0.36783,-0.57458 0.49742,-1.41082c0.02537,-0.16876 0.04613,-0.35063 0.0685,-0.53902c0.10087,-0.88429 0.22682,-1.98484 0.91738,-2.79693c0.26171,-0.30777 0.58227,-0.54581 0.95303,-0.70703c0.27752,-0.12105 0.59407,-0.11047 0.8622,0.02959c0.26814,0.14006 0.46036,0.39409 0.51836,0.6902c0.29795,1.49122 -0.05842,2.83033 -0.40346,4.12525c-0.15693,0.5859 -0.307,1.15138 -0.39104,1.70868c1.06992,0.16815 1.8222,0.2421 2.99433,0.25301c0.99581,-0.6956 2.06073,-1.22085 3.09296,-1.72927c0.57429,-0.28481 1.1487,-0.56821 1.70879,-0.87953c0.30077,-0.16692 0.66597,-0.16878 0.96728,-0.00445l0.23305,0.12729c0.46393,0.25405 0.64893,0.82223 0.42661,1.30133c-0.12349,0.26254 -0.28877,0.51711 -0.49153,0.75555c-0.98596,1.15947 -2.76412,1.83037 -4.19744,2.37051c0.3562,0.41316 0.79345,0.89 1.22362,1.35818c2.59976,2.83031 4.13869,4.65745 3.59774,6.1704c-0.04109,0.1147 -0.10283,0.21972 -0.17992,0.31038z" fill="#8e5c00"/><path d="M263.6315,234.64707l0.00674,0.19738c0.30678,1.17055 3.0774,-1.10585 3.86714,-1.60388c2.73785,-1.72538 5.50455,-3.09412 8.30729,-4.67506c4.64591,0.43797 9.2275,1.29119 13.7597,2.24417c5.26614,1.10716 6.52029,0.40415 9.1528,5.30614c0.43421,0.80767 2.94161,2.60119 3.79439,3.10188c0.5799,-1.61896 -4.57366,-6.0184 -5.46381,-7.63908c1.38983,-0.62176 3.92361,-1.28283 5.01969,-2.5718c0.14122,-0.16607 0.25822,-0.34225 0.34653,-0.531l-0.23305,-0.12729c-1.65006,0.9216 -3.43123,1.59913 -4.97176,2.73464c-1.76343,0.00215 -2.65888,-0.12265 -4.3803,-0.41689c0.00542,-2.24006 1.32719,-4.25599 0.88321,-6.4739c-0.24331,0.10552 -0.43611,0.25661 -0.59094,0.43868c-0.62189,0.73133 -0.62257,1.96861 -0.75982,2.84165c-0.14092,0.90668 -0.38974,1.5142 -0.72271,1.90577c-1.16994,1.37582 -3.36749,0.09782 -5.48552,-0.10049c-3.57236,-0.33893 -7.21985,-2.29989 -10.7743,-2.30329c-3.71455,2.12218 -8.3909,4.98332 -11.75527,7.67239M262.10789,233.35145c0.08227,-0.09675 0.17368,-0.18572 0.275,-0.26628c3.56224,-2.84766 8.49828,-5.83976 12.01067,-7.84769c0.30314,-0.17278 0.64618,-0.26437 0.99458,-0.26346c2.23408,0.00164 4.37999,0.64109 6.45607,1.25922c1.5847,0.47201 3.08144,0.91779 4.50482,1.0531c0.79492,0.07476 1.55567,0.26224 2.22752,0.42924c0.50887,0.12556 1.25443,0.3093 1.58824,0.2965c0.055,-0.10944 0.15273,-0.35713 0.22826,-0.84422c0.02346,-0.15726 0.04255,-0.32481 0.06323,-0.49887c0.10912,-0.96654 0.26121,-2.28771 1.1487,-3.33138c0.36148,-0.42509 0.80305,-0.7545 1.31501,-0.9768c0.5544,-0.24134 1.18901,-0.21889 1.72528,0.06124c0.53475,0.27883 0.91561,0.78647 1.03519,1.3791c0.34419,1.72087 -0.06007,3.23979 -0.41849,4.57978c-0.05429,0.20586 -0.10752,0.40739 -0.15891,0.60521c0.47593,0.05161 0.94029,0.08287 1.49384,0.09414c0.97366,-0.64486 1.97655,-1.13884 2.95205,-1.62068c0.58329,-0.28766 1.13518,-0.56002 1.66387,-0.85604c0.60067,-0.33589 1.33183,-0.33898 1.93533,-0.00825l0.23305,0.12729c0.9271,0.50745 1.29949,1.64716 0.85104,2.60212c-0.15875,0.34414 -0.37265,0.67287 -0.63372,0.97987c-0.83114,0.9774 -2.05708,1.62563 -3.25366,2.12818c0.08791,0.09576 0.17342,0.18816 0.25435,0.27667c2.46131,2.67976 4.58656,4.99367 3.80314,7.18386c-0.08283,0.23016 -0.2049,0.44009 -0.35973,0.62216c-0.2222,0.2613 -0.51079,0.46483 -0.84092,0.58446c-0.5603,0.20351 -1.18138,0.14662 -1.69604,-0.15583c-0.03577,-0.02123 -3.67722,-2.26715 -4.54401,-3.87979c-1.72124,-3.20427 -2.20555,-3.28925 -5.35061,-3.83584c-0.71018,-0.12347 -1.51457,-0.26273 -2.45358,-0.46133c-3.81616,-0.8009 -8.31096,-1.67746 -12.91839,-2.14834c-0.78142,0.43422 -1.56105,0.85552 -2.33721,1.27584c-1.84467,0.99764 -3.5875,1.93881 -5.33371,3.03987c-0.11674,0.074 -0.28699,0.19702 -0.48882,0.34174c-1.85327,1.32112 -3.38752,2.2887 -4.87258,1.75046c-0.74981,-0.27137 -1.29866,-0.88248 -1.50601,-1.67445c-0.03788,-0.14379 -0.0583,-0.29111 -0.06387,-0.43893l-0.00674,-0.19738c-0.01521,-0.50387 0.15838,-0.98896 0.47775,-1.36453z" fill="#000000"/></g><g data-paper-data="{&quot;index&quot;:null}" stroke="none" stroke-width="1"><path d="M285.35649,157.204c-0.228,1.628 -4.75,1.053 -6.14,-0.109c1.68,-0.885 6.368,-1.519 6.14,0.109z" fill="#000000"/><path d="M284.35749,159.834c-0.277,1.815 -6.447,-0.212 -6.447,-0.212c0,0 6.724,-1.603 6.447,0.212z" fill="#000000"/><path d="M283.08249,162.72c-0.26,1.923 -6.754,-1.372 -6.754,-1.372c0,0 7.014,-0.552 6.754,1.372z" fill="#000000"/><path d="M282.28649,165.432c-0.181,2.117 -6.618,-1.273 -6.618,-1.273c0,0 6.8,-0.844 6.618,1.273z" fill="#000000"/><path d="M281.70349,168.316c-0.181,2.117 -6.618,-1.273 -6.618,-1.273c0,0 6.799,-0.844 6.618,1.273z" fill="#000000"/><g><path d="M274.44749,168.944c-0.317,0 -0.664,-0.04 -1.014,-0.081c-0.198,-0.024 -0.396,-0.049 -0.586,-0.061c-4.129,-0.266 -8.306,-1.427 -12.204,-2.642c-1.588,-0.495 -3.306,-0.735 -5.251,-0.735c-1.878,0 -3.556,0.224 -4.904,0.405c-0.872,0.117 -1.561,0.209 -2.085,0.209c-0.253,0 -0.464,-0.022 -0.649,-0.067c-0.097,-0.025 -0.196,-0.037 -0.293,-0.037c-0.189,0 -0.348,0.044 -0.468,0.093c-0.334,0.283 -0.584,0.427 -0.918,0.427l-0.794,-0.003l-0.184,-0.767c-0.126,-0.523 0.132,-0.969 0.766,-1.327c0,0 0.16,-0.151 0.204,-0.197c-0.065,-0.067 -0.14,-0.142 -0.206,-0.208c-0.145,-0.144 -0.308,-0.308 -0.485,-0.498c-0.947,-1.022 -0.226,-2.212 0.161,-2.851c0.132,-0.216 0.351,-0.579 0.361,-0.712c-0.001,0.023 0.01,0.076 0.033,0.108l1.283,-1.465c0.408,0.218 0.973,0.328 1.681,0.328c2.55,0 6.25,-1.384 9.515,-2.605c2.215,-0.828 4.128,-1.544 5.513,-1.773l1.208,-0.202c2.325,-0.393 4.005,-0.677 6.689,-0.677c1.877,0 6.394,0.224 7.798,2.289c0.342,0.502 0.657,1.337 0.213,2.459c-0.674,1.69 -1.257,2.077 -1.895,2.377c-0.234,0.11 -0.436,0.205 -0.823,1.191c-0.244,0.873 -0.228,1.627 -0.211,2.425c0.021,0.975 0.045,2.08 -0.441,3.368c-0.206,0.561 -0.722,1.229 -2.014,1.229z" fill="#00ae4b"/><path d="M271.82049,154.605c-3.029,0 -4.707,0.368 -7.735,0.866c-3.299,0.547 -10.71,4.392 -15.189,4.392c-0.834,0 -1.566,-0.133 -2.152,-0.446c0.745,1.04 -1.495,2.428 -0.634,3.357c1.026,1.105 1.585,1.245 0.467,2.285c-0.047,0.044 -0.092,0.084 -0.132,0.12c0.246,-0.125 0.598,-0.245 1.017,-0.245c0.167,0 0.346,0.02 0.533,0.065c0.108,0.026 0.245,0.038 0.41,0.038c1.2,0 3.844,-0.615 6.99,-0.615c1.749,0 3.652,0.19 5.549,0.781c3.812,1.188 7.941,2.339 11.971,2.599c0.501,0.032 1.058,0.141 1.534,0.141c0.498,0 0.909,-0.12 1.075,-0.574c0.793,-2.101 0.022,-3.552 0.628,-5.718c1.124,-2.902 1.587,-0.746 2.752,-3.669c1.069,-2.706 -3.986,-3.377 -7.084,-3.377M246.44449,165.18c-0.265,0.134 -0.404,0.274 -0.37,0.274c0.026,0 0.143,-0.073 0.37,-0.274M271.82049,152.605c2.529,0 7.012,0.354 8.625,2.726c0.675,0.994 0.788,2.197 0.317,3.388c-0.73,1.833 -1.46,2.474 -2.4,2.917c-0.001,0 -0.002,0.001 -0.003,0.001c-0.053,0.084 -0.158,0.272 -0.306,0.644c-0.179,0.694 -0.166,1.322 -0.15,2.044c0.022,1.065 0.049,2.273 -0.509,3.751c-0.202,0.55 -0.905,1.868 -2.946,1.868c-0.4,0 -0.79,-0.047 -1.133,-0.089c-0.179,-0.022 -0.357,-0.045 -0.528,-0.056c-4.234,-0.273 -8.48,-1.452 -12.438,-2.685c-1.491,-0.465 -3.111,-0.69 -4.954,-0.69c-1.812,0 -3.453,0.22 -4.771,0.396c-0.909,0.122 -1.627,0.218 -2.219,0.218c-0.334,0 -0.624,-0.031 -0.886,-0.096c-0.021,-0.005 -0.038,-0.007 -0.054,-0.008c-0.33,0.255 -0.787,0.52 -1.39,0.52h-1.577l-0.373,-1.537c-0.086,-0.359 -0.16,-1.122 0.476,-1.829c-1.395,-1.565 -0.324,-3.333 0.081,-4.002c0.088,-0.145 0.221,-0.364 0.252,-0.447c-0.055,0.147 -0.083,0.571 0.184,0.944l2.569,-2.929c0.146,0.078 0.499,0.21 1.209,0.21c2.369,0 6.137,-1.409 9.164,-2.542c2.264,-0.847 4.219,-1.578 5.698,-1.823c0.428,-0.07 0.827,-0.138 1.207,-0.202c2.373,-0.402 4.087,-0.692 6.855,-0.692z" fill="#000000"/></g><g><path d="M238.90449,170.604c-6.492,0 -12.424,-1.768 -16.701,-4.978c-1.648,-1.238 -3.9,-3.697 -4.823,-6.557c-0.095,-0.292 -0.05,-0.611 0.121,-0.865c0.172,-0.254 0.45,-0.417 0.756,-0.439c1.152,-0.086 1.558,-0.951 2.088,-2.366c0.347,-0.925 0.674,-1.799 1.493,-2.172c0.194,-0.089 0.397,-0.134 0.604,-0.134c1.058,0 1.573,1.072 1.85,1.648c0.031,0.066 0.058,0.123 0.079,0.161c1.83,3.117 5.295,5.538 9.04,6.316c1.786,0.371 3.489,0.559 5.064,0.559c4.259,0 7.734,-1.376 10.329,-4.09c0.104,-0.109 0.286,-0.396 0.446,-0.649c0.565,-0.891 1.338,-2.111 2.592,-2.111c0.099,0 0.2,0.008 0.302,0.025c1.92,0.321 1.74,2.329 1.663,3.186c-0.019,0.206 -0.042,0.395 -0.031,0.542c0.085,1.206 0.986,1.798 2.447,2.666c0.267,0.158 0.535,0.317 0.798,0.484c0.308,0.195 0.485,0.542 0.463,0.906c-0.022,0.364 -0.241,0.687 -0.571,0.843c-0.851,0.402 -1.798,1.032 -2.634,1.588c-0.503,0.335 -0.955,0.634 -1.307,0.834c-3.481,1.978 -7.812,4.44 -13.087,4.589c-0.325,0.009 -0.652,0.014 -0.981,0.014z" fill="#00ae4b"/><path d="M222.44149,154.094c-0.061,0 -0.124,0.014 -0.188,0.043c-1.2,0.547 -0.95,4.405 -3.923,4.626c0.839,2.599 2.9,4.884 4.473,6.064c4.582,3.438 10.606,4.777 16.102,4.777c0.319,0 0.637,-0.005 0.953,-0.014c4.841,-0.137 8.799,-2.287 12.621,-4.459c0.927,-0.527 2.569,-1.778 4.008,-2.457c-1.662,-1.053 -3.558,-1.812 -3.708,-3.924c-0.057,-0.801 0.519,-2.592 -0.799,-2.812c-0.046,-0.008 -0.092,-0.011 -0.137,-0.011c-1.011,0 -1.746,1.856 -2.316,2.451c-3.047,3.188 -6.923,4.399 -11.051,4.399c-1.726,0 -3.496,-0.212 -5.268,-0.58c-4.021,-0.835 -7.699,-3.382 -9.699,-6.789c-0.167,-0.283 -0.537,-1.314 -1.068,-1.314M222.44149,152.094c1.687,0 2.433,1.552 2.751,2.215l0.059,0.12c1.674,2.85 4.885,5.089 8.363,5.812c1.719,0.356 3.354,0.538 4.86,0.538c4.031,0 7.173,-1.237 9.605,-3.781c0.052,-0.062 0.216,-0.322 0.325,-0.494c0.611,-0.963 1.633,-2.576 3.437,-2.576c0.155,0 0.312,0.013 0.466,0.039c1.294,0.216 2.776,1.13 2.495,4.262c-0.013,0.14 -0.03,0.332 -0.028,0.399c0.045,0.629 0.481,0.981 1.959,1.859c0.275,0.163 0.552,0.328 0.823,0.5c0.616,0.39 0.971,1.085 0.926,1.813c-0.045,0.728 -0.483,1.374 -1.143,1.685c-0.785,0.371 -1.699,0.979 -2.507,1.517c-0.52,0.346 -0.969,0.645 -1.367,0.871c-3.576,2.033 -8.028,4.563 -13.552,4.719c-0.334,0.01 -0.671,0.015 -1.009,0.015c-6.707,0 -12.852,-1.839 -17.302,-5.178c-1.851,-1.389 -4.182,-3.97 -5.176,-7.049c-0.188,-0.583 -0.099,-1.222 0.244,-1.73c0.342,-0.509 0.899,-0.833 1.511,-0.878c0.463,-0.034 0.681,-0.264 1.226,-1.719c0.384,-1.025 0.819,-2.187 2.017,-2.732c0.322,-0.152 0.666,-0.227 1.017,-0.227z" fill="#000000"/></g></g><g data-paper-data="{&quot;index&quot;:null}"><path d="M244.41049,138.333c3.498,1.948 6,6.682 5.513,11.614c-1.697,17.103 -28.705,12.541 -26.188,-3.225c0.548,-3.431 1.687,-5.704 5.018,-7.966c5.407,-3.673 12.677,-2.083 15.657,-0.423z" fill="#ffffff" stroke="#000000" stroke-width="2"/><g stroke="none" stroke-width="1"><path d="M227.61849,151.6l-0.416,-0.031c-0.667,-0.049 -9.275,-2.044 -9.973,-2.454l-1.49,-0.875l1.727,-0.056c0.988,-0.032 1.976,-0.076 2.963,-0.12c1.888,-0.084 3.84,-0.171 5.767,-0.171c0.581,0 1.162,0.007 1.743,0.025l0.625,0.02z" fill="#ff8900"/><path d="M226.19649,148.393c-2.906,0 -5.81,0.196 -8.713,0.291c0.528,0.31 8.97,2.329 9.756,2.387l0.685,-2.652c-0.576,-0.019 -1.152,-0.026 -1.728,-0.026M226.19649,147.393c0.586,0 1.172,0.008 1.758,0.026l1.251,0.039l-0.312,1.211l-0.686,2.652l-0.208,0.808l-0.833,-0.061c-0.715,-0.053 -9.426,-2.074 -10.188,-2.522l-2.981,-1.75l3.455,-0.112c0.985,-0.032 1.971,-0.076 2.956,-0.12c1.893,-0.085 3.85,-0.171 5.788,-0.171z" fill="#000000"/></g><g stroke="none" stroke-width="1"><path d="M220.67649,141.141c2.23,-3.638 8.51,-0.162 6.848,3.447c-2.118,4.592 -9.367,0.661 -6.848,-3.447zM223.52849,144.959c2.202,0.458 3.935,-1.962 1.884,-3.348c-3.331,-2.252 -4.659,2.772 -1.884,3.348z" fill="#000000"/><path d="M225.41249,141.611c2.051,1.386 0.318,3.806 -1.884,3.348c-2.775,-0.576 -1.447,-5.6 1.884,-3.348z" fill="#ffffff"/><path d="M222.68149,143.81c-0.49871,0 -0.903,-0.37563 -0.903,-0.839c0,-0.46337 0.40429,-0.839 0.903,-0.839c0.49871,0 0.903,0.37563 0.903,0.839c0,0.46337 -0.40429,0.839 -0.903,0.839z" fill="#000000"/></g><g stroke="none" stroke-width="1"><path d="M233.35549,143.576c2.871,-4.682 10.951,-0.209 8.811,4.436c-2.723,5.908 -12.051,0.85 -8.811,-4.436zM237.02749,148.489c2.833,0.588 5.062,-2.525 2.424,-4.309c-4.286,-2.896 -5.994,3.568 -2.424,4.309z" fill="#000000"/><path d="M239.45149,144.18c2.638,1.784 0.409,4.897 -2.424,4.309c-3.57,-0.741 -1.862,-7.205 2.424,-4.309z" fill="#ffffff"/><path d="M236.12949,147.154c-0.72073,0 -1.305,-0.54263 -1.305,-1.212c0,-0.66937 0.58427,-1.212 1.305,-1.212c0.72073,0 1.305,0.54263 1.305,1.212c0,0.66937 -0.58427,1.212 -1.305,1.212z" fill="#000000"/></g></g><g data-paper-data="{&quot;index&quot;:null}" stroke="none" stroke-width="1"><path d="M221.28149,127.301c3.753,0.407 11.221,4.783 13.18,5.091c7.94,-10.862 6.292,-20.904 9.584,-19.994c6.982,1.929 25.915,12.834 28.585,20.366c0.25,0.707 -0.232,0.675 -0.799,1.007c-3.674,0.921 -15.341,7.08 -16.432,10.342c1.963,1.268 9.022,6.097 10.27,7.372c-1.597,2.066 -3.868,3.826 -6.447,4.72c0,0 -6.896,-7.08 -40.222,-23.441c0.745,-1.826 1.205,-3.767 2.281,-5.463z" fill="#000000"/><path d="M262.82649,151.377l-3.666,2.595c0,0 -17.652,-13.061 -37.75,-21.677l0.615,-3.083c0,-0.001 20.468,7.332 40.801,22.165z" fill="#4853a9"/><path d="M249.92049,131.129c3.37,1.968 6.174,4.374 8.199,6.437c-1.975,1.313 -3.857,2.742 -5.57,4.373c-5.165,-2.756 -10.446,-5.487 -15.519,-8.38c0.585,-1.129 2.007,-4.146 3.452,-7.455c3.203,1.261 5.752,2.874 9.438,5.025z" fill="#8b94ed"/><path d="M250.57349,128.358c-1.512,-1.085 -5.701,-3.184 -9.065,-4.65c1.417,-3.375 2.665,-6.666 2.915,-8.256c2.351,-0.13 19.942,9.615 23.702,16.304c-2.769,1.532 -5.58,3.033 -8.264,4.694c-2.684,-3.099 -5.172,-5.122 -9.288,-8.092z" fill="#4853a9"/></g></g></g></svg>