<svg version="1.1" xmlns="http://www.w3.org/2000/svg" xmlns:xlink="http://www.w3.org/1999/xlink" width="97.63013" height="130.65629" viewBox="0,0,97.63013,130.65629"><g transform="translate(-188.26518,-112.34054)"><g data-paper-data="{&quot;isPaintingLayer&quot;:true}" fill-rule="nonzero" stroke-linecap="butt" stroke-linejoin="miter" stroke-miterlimit="10" stroke-dasharray="" stroke-dashoffset="0" style="mix-blend-mode: normal"><g data-paper-data="{&quot;index&quot;:null}" stroke="none" stroke-width="1"><path d="M213.13449,207.304c1.789,0.409 10.435,8.443 11.302,10.194c0.856,1.725 -8.206,15.606 -15.098,19.889c-2.314,-1.215 -19.584,-16.935 -15.231,-22.422c3.196,-4.029 8.169,0.558 10.685,2.264c0.957,-2.017 6.002,-10.461 8.342,-9.925z" fill="#000000"/><path d="M220.97549,217.381c-1.557,5.88 -4.755,11.095 -9.235,14.908c-4.746,-3.596 -11.658,-10.388 -14.003,-16.001c3.108,0.17 6.705,4.564 7.301,4.581c2.966,-3.251 5.177,-7.156 8.012,-10.525c0.931,0.491 7.071,5.896 7.925,7.037z" fill="#4853a9"/><path d="M210.53149,233.281l-1.493,1.471c-3.628,-3.663 -13.326,-11.176 -13.423,-16.711c-0.003,-0.174 0.179,-0.716 0.228,-0.906c1.051,4.52 10.671,13.661 14.688,16.146z" fill="#84a4f2"/></g><g data-paper-data="{&quot;index&quot;:null}" stroke="none" stroke-width="1"><path d="M211.63149,175.342c-0.233,-0.007 -0.456,-0.096 -0.631,-0.25c-2.299,-2.031 -4.428,-4.186 -6.487,-6.269c-1.965,-1.989 -3.995,-4.043 -6.19,-6.008c-0.889,0.132 -1.741,0.455 -2.637,0.795c-1.243,0.472 -2.529,0.959 -4.006,0.959c-0.281,0 -0.566,-0.018 -0.858,-0.057c-0.43,-0.057 -0.774,-0.384 -0.852,-0.81c-0.078,-0.426 0.126,-0.853 0.507,-1.06c1.235,-0.67 2.586,-1.031 3.893,-1.381c0.446,-0.119 0.88,-0.236 1.304,-0.361c-1.588,-1.263 -4.2,-3.276 -5.903,-4.253c-0.401,-0.23 -0.592,-0.703 -0.464,-1.146c0.124,-0.429 0.518,-0.722 0.961,-0.722c0.014,0 0.028,0.001 0.042,0.001c5.043,0.214 8.883,4.415 11.979,7.879l3.765,-3.189c0.185,-0.157 0.415,-0.237 0.646,-0.237c0.181,0 0.364,0.049 0.526,0.15c0.369,0.228 0.548,0.668 0.444,1.089c-0.399,1.624 -1.542,2.675 -2.647,3.693c-0.251,0.23 -0.493,0.453 -0.723,0.679c0.734,0.753 2.541,2.168 3.922,3.25c1.487,1.164 3.019,2.364 4.101,3.358c0.86,-0.129 1.715,-0.443 2.612,-0.772c0.27,-0.099 0.542,-0.198 0.816,-0.294c0.107,-0.037 0.218,-0.056 0.329,-0.056c0.186,0 0.372,0.052 0.534,0.155c0.258,0.163 0.427,0.435 0.46,0.738l0.205,1.896c0.029,0.27 -0.053,0.541 -0.227,0.749c-0.174,0.208 -0.425,0.336 -0.696,0.356c-0.52,0.037 -1.096,0.246 -1.705,0.468c-0.837,0.304 -1.786,0.65 -2.865,0.65z" fill="#8e5c00"/><path d="M190.26649,155.778c2.683,1.538 7.418,5.462 7.418,5.462c-2.168,0.955 -4.68,1.167 -6.731,2.28c0.247,0.033 0.489,0.048 0.727,0.048c2.456,0 4.479,-1.604 6.975,-1.798c4.678,4.137 8.443,8.539 13.008,12.57c0.041,0.001 0.083,0.002 0.124,0.002c1.658,0 3.052,-1.012 4.499,-1.116l-0.205,-1.896c-1.368,0.477 -2.683,1.061 -4.106,1.167c-2.737,-2.652 -9.896,-7.438 -8.812,-7.916c1.312,-1.432 3.08,-2.493 3.537,-4.349l-4.508,3.819c-3.139,-3.5 -6.962,-8.062 -11.926,-8.273M190.26549,153.778c0.028,0 0.058,0 0.086,0.002c5.1,0.216 8.925,4.046 12.031,7.487l3.023,-2.561c0.371,-0.314 0.831,-0.474 1.293,-0.474c0.364,0 0.729,0.099 1.054,0.3c0.736,0.457 1.096,1.336 0.889,2.178c-0.463,1.878 -1.732,3.076 -2.872,4.125c0.864,0.744 2.125,1.731 3.069,2.471c1.338,1.048 2.713,2.125 3.783,3.07c0.629,-0.144 1.285,-0.385 1.968,-0.635c0.276,-0.102 0.553,-0.203 0.832,-0.3c0.214,-0.075 0.437,-0.111 0.658,-0.111c0.374,0 0.745,0.105 1.068,0.31c0.516,0.326 0.854,0.869 0.92,1.475l0.205,1.896c0.059,0.54 -0.105,1.08 -0.453,1.497c-0.348,0.417 -0.851,0.674 -1.392,0.713c-0.382,0.027 -0.894,0.213 -1.435,0.411c-0.87,0.316 -1.953,0.71 -3.208,0.71c-0.062,0 -0.123,-0.001 -0.186,-0.003c-0.466,-0.014 -0.913,-0.191 -1.263,-0.5c-2.324,-2.053 -4.466,-4.22 -6.537,-6.315c-1.844,-1.866 -3.745,-3.79 -5.779,-5.635c-0.643,0.147 -1.299,0.396 -1.981,0.655c-1.266,0.48 -2.7,1.024 -4.36,1.024c-0.331,0 -0.664,-0.022 -0.99,-0.065c-0.858,-0.114 -1.546,-0.768 -1.703,-1.62c-0.157,-0.852 0.252,-1.708 1.014,-2.121c1.136,-0.616 2.323,-0.981 3.49,-1.3c-1.409,-1.081 -3.044,-2.275 -4.219,-2.949c-0.8,-0.458 -1.183,-1.405 -0.926,-2.291c0.25,-0.858 1.035,-1.444 1.921,-1.444z" fill="#000000"/></g><g data-paper-data="{&quot;index&quot;:null}"><path d="M209.27449,186.341c6.583,-8.49 18.338,-12.622 28.934,-11.923c10.81,0.715 17.517,-0.198 27.982,12.622c4.363,5.343 4.339,14.388 3.133,20.736c-5.25,27.712 -60.833,18.247 -65.124,-2.657c-1.287,-6.279 0.7,-13.136 5.075,-18.778z" fill="#ffffff" stroke="#000000" stroke-width="2"/><path d="M214.81449,190.507c-1.44091,0 -2.609,-1.08616 -2.609,-2.426c0,-1.33984 1.16809,-2.426 2.609,-2.426c1.44091,0 2.609,1.08616 2.609,2.426c0,1.33984 -1.16809,2.426 -2.609,2.426z" fill="#8e5c00" stroke="none" stroke-width="1"/><path d="M210.92049,200.169c-1.43981,0 -2.607,-1.08616 -2.607,-2.426c0,-1.33984 1.16719,-2.426 2.607,-2.426c1.43981,0 2.607,1.08616 2.607,2.426c0,1.33984 -1.16719,2.426 -2.607,2.426z" fill="#8e5c00" stroke="none" stroke-width="1"/><path d="M211.64449,209.738c-1.44036,0 -2.608,-1.08616 -2.608,-2.426c0,-1.33984 1.16764,-2.426 2.608,-2.426c1.44036,0 2.608,1.08616 2.608,2.426c0,1.33984 -1.16764,2.426 -2.608,2.426z" fill="#8e5c00" stroke="none" stroke-width="1"/></g><g data-paper-data="{&quot;index&quot;:null}"><path d="M219.51249,164.432c4.072,-5.251 11.343,-7.807 17.896,-7.374c6.687,0.442 10.835,-0.124 17.308,7.806c2.699,3.306 2.684,8.9 1.938,12.827c-3.247,17.141 -37.627,11.286 -40.281,-1.644c-0.797,-3.883 0.433,-8.125 3.139,-11.615z" fill="#ffffff" stroke="#000000" stroke-width="2"/><path d="M221.47249,171.276c-1.44036,0 -2.608,-1.08571 -2.608,-2.425c0,-1.33929 1.16764,-2.425 2.608,-2.425c1.44036,0 2.608,1.08571 2.608,2.425c0,1.33929 -1.16764,2.425 -2.608,2.425z" fill="#8e5c00" stroke="none" stroke-width="1"/><path d="M220.47249,178.592c-1.44036,0 -2.608,-1.08571 -2.608,-2.425c0,-1.33929 1.16764,-2.425 2.608,-2.425c1.44036,0 2.608,1.08571 2.608,2.425c0,1.33929 -1.16764,2.425 -2.608,2.425z" fill="#8e5c00" stroke="none" stroke-width="1"/></g><g data-paper-data="{&quot;index&quot;:null}" stroke="none" stroke-width="1"><path d="M239.08449,220.059c1.221,-1.371 12.426,-5.076 14.378,-4.992c1.925,0.081 9.722,14.709 10.155,22.812c-2.18,1.443 -24.275,9.003 -26.987,2.545c-1.992,-4.741 4.425,-6.889 7.132,-8.272c-1.306,-1.809 -6.276,-10.298 -4.678,-12.093z" fill="#000000"/><path d="M251.69249,218.045c4.402,4.197 7.431,9.511 8.615,15.275c-5.438,2.426 -14.719,5.211 -20.768,4.562c1.647,-2.641 7.231,-3.676 7.531,-4.19c-1.42,-4.166 -3.776,-7.985 -5.363,-12.092c0.88,-0.58 8.574,-3.356 9.985,-3.555z" fill="#4853a9"/><path d="M260.59349,234.857l0.57,2.017c-4.958,1.414 -16.214,6.294 -21.11,3.712c-0.155,-0.081 -0.541,-0.502 -0.685,-0.637c4.468,1.257 17.113,-2.769 21.225,-5.092z" fill="#84a4f2"/></g><g data-paper-data="{&quot;index&quot;:null}" stroke="none" stroke-width="1"><path d="M275.77649,205.115c-0.172,0 -0.343,-0.045 -0.495,-0.129c-0.259,-0.148 -0.438,-0.402 -0.49,-0.695c-0.084,-0.477 -0.548,-4.145 -0.042,-5.438c1.503,-3.842 1.054,-4.602 -0.614,-7.434c-0.363,-0.617 -0.774,-1.313 -1.221,-2.137c-1.916,-3.527 -4.237,-7.651 -6.966,-11.583c-0.935,-0.347 -1.853,-0.704 -2.768,-1.059c-1.97,-0.765 -3.832,-1.488 -5.833,-2.116c-0.145,-0.045 -0.368,-0.101 -0.632,-0.167c-1.918,-0.483 -3.415,-0.934 -3.797,-1.958c-0.162,-0.435 -0.095,-0.912 0.183,-1.31c0.042,-0.061 0.091,-0.117 0.146,-0.167l0.146,-0.133c0.186,-0.169 0.426,-0.26 0.673,-0.26c0.063,0 0.127,0.006 0.19,0.019c4.414,0.857 9.838,2.662 13.61,4.025c0.164,0.059 0.309,0.16 0.422,0.293c1.352,1.593 2.225,3.574 3.07,5.491c0.687,1.557 1.336,3.03 2.211,4.282c0.416,0.594 0.734,1.233 1.041,1.848c0.667,1.34 1.045,1.971 1.616,1.971c0.239,0 0.676,-0.092 1.397,-0.535c0.145,-0.09 0.297,-0.192 0.455,-0.297c0.739,-0.496 1.659,-1.113 2.725,-1.113c0.404,0 0.793,0.09 1.156,0.268c0.272,0.133 0.469,0.381 0.536,0.676c0.067,0.295 -0.002,0.606 -0.19,0.842c-0.943,1.193 -2.194,1.789 -3.404,2.365c-0.548,0.26 -1.076,0.512 -1.555,0.809c0.565,0.924 0.996,1.545 1.747,2.445c1.175,0.308 2.265,0.779 3.321,1.236c0.589,0.253 1.177,0.507 1.777,0.732c0.322,0.121 0.56,0.398 0.63,0.734l0.054,0.26c0.107,0.518 -0.206,1.027 -0.715,1.168c-0.28,0.076 -0.581,0.115 -0.894,0.115c-1.522,0 -3.185,-0.92 -4.525,-1.662c-0.084,0.539 -0.164,1.181 -0.242,1.812c-0.472,3.814 -0.867,6.17 -2.37,6.738c-0.114,0.043 -0.234,0.064 -0.353,0.064z" fill="#8e5c00"/><path d="M254.06649,171.529l-0.146,0.133c-0.693,0.992 2.836,1.628 3.727,1.907c3.088,0.968 5.923,2.189 8.943,3.3c2.676,3.823 4.994,7.866 7.204,11.936c2.568,4.729 3.916,5.229 1.887,10.41c-0.334,0.854 -0.076,3.926 0.095,4.9c1.609,-0.607 1.622,-7.383 2.28,-9.111c1.374,0.656 3.519,2.158 5.211,2.158c0.218,0 0.428,-0.025 0.629,-0.08l-0.054,-0.26c-1.771,-0.66 -3.441,-1.578 -5.304,-2.016c-1.144,-1.342 -1.629,-2.105 -2.52,-3.607c1.71,-1.447 4.102,-1.746 5.504,-3.521c-0.238,-0.117 -0.478,-0.166 -0.717,-0.166c-0.96,0 -1.903,0.801 -2.657,1.262c-0.782,0.48 -1.406,0.684 -1.92,0.684c-1.806,0 -2.256,-2.502 -3.477,-4.244c-2.056,-2.941 -2.925,-6.99 -5.225,-9.7c-4.023,-1.455 -9.232,-3.164 -13.46,-3.985M254.06649,169.529c0.127,0 0.254,0.012 0.381,0.037c4.477,0.869 9.954,2.691 13.759,4.066c0.328,0.119 0.62,0.321 0.845,0.587c1.446,1.703 2.349,3.752 3.223,5.734c0.667,1.513 1.297,2.942 2.116,4.114c0.458,0.654 0.808,1.355 1.116,1.975c0.234,0.469 0.577,1.156 0.803,1.402c0.119,-0.029 0.371,-0.115 0.791,-0.373c0.135,-0.084 0.275,-0.178 0.421,-0.275c0.807,-0.543 1.912,-1.283 3.282,-1.283c0.558,0 1.095,0.123 1.596,0.369c0.543,0.266 0.937,0.764 1.071,1.354c0.134,0.588 -0.006,1.207 -0.38,1.682c-1.088,1.377 -2.507,2.053 -3.76,2.648c-0.192,0.092 -0.38,0.182 -0.564,0.271c0.269,0.396 0.546,0.77 0.896,1.199c1.122,0.324 2.148,0.768 3.147,1.199c0.597,0.258 1.162,0.502 1.73,0.713c0.645,0.24 1.121,0.795 1.26,1.469l0.054,0.26c0.214,1.035 -0.413,2.057 -1.431,2.334c-0.365,0.102 -0.754,0.152 -1.157,0.152c-1.283,0 -2.571,-0.514 -3.729,-1.1c-0.016,0.129 -0.031,0.254 -0.046,0.373c-0.447,3.611 -0.833,6.729 -3.009,7.551c-0.229,0.086 -0.468,0.129 -0.707,0.129c-0.343,0 -0.685,-0.088 -0.99,-0.262c-0.518,-0.295 -0.877,-0.805 -0.98,-1.393c-0.007,-0.041 -0.655,-4.27 0.012,-5.975c1.326,-3.387 1.077,-3.811 -0.544,-6.561c-0.366,-0.621 -0.781,-1.324 -1.238,-2.168c-1.862,-3.426 -4.106,-7.418 -6.732,-11.233c-0.837,-0.314 -1.663,-0.635 -2.486,-0.954c-1.955,-0.759 -3.801,-1.477 -5.771,-2.094c-0.132,-0.041 -0.336,-0.091 -0.577,-0.151c-2.207,-0.556 -3.938,-1.098 -4.49,-2.578c-0.279,-0.747 -0.169,-1.561 0.3,-2.232c0.085,-0.122 0.184,-0.233 0.293,-0.333l0.146,-0.133c0.374,-0.338 0.856,-0.52 1.349,-0.52z" fill="#000000"/></g><g data-paper-data="{&quot;index&quot;:null}" stroke="none" stroke-width="1"><path d="M285.35649,157.204c-0.228,1.628 -4.75,1.053 -6.14,-0.109c1.68,-0.885 6.368,-1.519 6.14,0.109z" fill="#000000"/><path d="M284.35749,159.834c-0.277,1.815 -6.447,-0.212 -6.447,-0.212c0,0 6.724,-1.603 6.447,0.212z" fill="#000000"/><path d="M283.08249,162.72c-0.26,1.923 -6.754,-1.372 -6.754,-1.372c0,0 7.014,-0.552 6.754,1.372z" fill="#000000"/><path d="M282.28649,165.432c-0.181,2.117 -6.618,-1.273 -6.618,-1.273c0,0 6.8,-0.844 6.618,1.273z" fill="#000000"/><path d="M281.70349,168.316c-0.181,2.117 -6.618,-1.273 -6.618,-1.273c0,0 6.799,-0.844 6.618,1.273z" fill="#000000"/><g><path d="M274.44749,168.944c-0.317,0 -0.664,-0.04 -1.014,-0.081c-0.198,-0.024 -0.396,-0.049 -0.586,-0.061c-4.129,-0.266 -8.306,-1.427 -12.204,-2.642c-1.588,-0.495 -3.306,-0.735 -5.251,-0.735c-1.878,0 -3.556,0.224 -4.904,0.405c-0.872,0.117 -1.561,0.209 -2.085,0.209c-0.253,0 -0.464,-0.022 -0.649,-0.067c-0.097,-0.025 -0.196,-0.037 -0.293,-0.037c-0.189,0 -0.348,0.044 -0.468,0.093c-0.334,0.283 -0.584,0.427 -0.918,0.427l-0.794,-0.003l-0.184,-0.767c-0.126,-0.523 0.132,-0.969 0.766,-1.327c0,0 0.16,-0.151 0.204,-0.197c-0.065,-0.067 -0.14,-0.142 -0.206,-0.208c-0.145,-0.144 -0.308,-0.308 -0.485,-0.498c-0.947,-1.022 -0.226,-2.212 0.161,-2.851c0.132,-0.216 0.351,-0.579 0.361,-0.712c-0.001,0.023 0.01,0.076 0.033,0.108l1.283,-1.465c0.408,0.218 0.973,0.328 1.681,0.328c2.55,0 6.25,-1.384 9.515,-2.605c2.215,-0.828 4.128,-1.544 5.513,-1.773l1.208,-0.202c2.325,-0.393 4.005,-0.677 6.689,-0.677c1.877,0 6.394,0.224 7.798,2.289c0.342,0.502 0.657,1.337 0.213,2.459c-0.674,1.69 -1.257,2.077 -1.895,2.377c-0.234,0.11 -0.436,0.205 -0.823,1.191c-0.244,0.873 -0.228,1.627 -0.211,2.425c0.021,0.975 0.045,2.08 -0.441,3.368c-0.206,0.561 -0.722,1.229 -2.014,1.229z" fill="#00ae4b"/><path d="M271.82049,154.605c-3.029,0 -4.707,0.368 -7.735,0.866c-3.299,0.547 -10.71,4.392 -15.189,4.392c-0.834,0 -1.566,-0.133 -2.152,-0.446c0.745,1.04 -1.495,2.428 -0.634,3.357c1.026,1.105 1.585,1.245 0.467,2.285c-0.047,0.044 -0.092,0.084 -0.132,0.12c0.246,-0.125 0.598,-0.245 1.017,-0.245c0.167,0 0.346,0.02 0.533,0.065c0.108,0.026 0.245,0.038 0.41,0.038c1.2,0 3.844,-0.615 6.99,-0.615c1.749,0 3.652,0.19 5.549,0.781c3.812,1.188 7.941,2.339 11.971,2.599c0.501,0.032 1.058,0.141 1.534,0.141c0.498,0 0.909,-0.12 1.075,-0.574c0.793,-2.101 0.022,-3.552 0.628,-5.718c1.124,-2.902 1.587,-0.746 2.752,-3.669c1.069,-2.706 -3.986,-3.377 -7.084,-3.377M246.44449,165.18c-0.265,0.134 -0.404,0.274 -0.37,0.274c0.026,0 0.143,-0.073 0.37,-0.274M271.82049,152.605c2.529,0 7.012,0.354 8.625,2.726c0.675,0.994 0.788,2.197 0.317,3.388c-0.73,1.833 -1.46,2.474 -2.4,2.917c-0.001,0 -0.002,0.001 -0.003,0.001c-0.053,0.084 -0.158,0.272 -0.306,0.644c-0.179,0.694 -0.166,1.322 -0.15,2.044c0.022,1.065 0.049,2.273 -0.509,3.751c-0.202,0.55 -0.905,1.868 -2.946,1.868c-0.4,0 -0.79,-0.047 -1.133,-0.089c-0.179,-0.022 -0.357,-0.045 -0.528,-0.056c-4.234,-0.273 -8.48,-1.452 -12.438,-2.685c-1.491,-0.465 -3.111,-0.69 -4.954,-0.69c-1.812,0 -3.453,0.22 -4.771,0.396c-0.909,0.122 -1.627,0.218 -2.219,0.218c-0.334,0 -0.624,-0.031 -0.886,-0.096c-0.021,-0.005 -0.038,-0.007 -0.054,-0.008c-0.33,0.255 -0.787,0.52 -1.39,0.52h-1.577l-0.373,-1.537c-0.086,-0.359 -0.16,-1.122 0.476,-1.829c-1.395,-1.565 -0.324,-3.333 0.081,-4.002c0.088,-0.145 0.221,-0.364 0.252,-0.447c-0.055,0.147 -0.083,0.571 0.184,0.944l2.569,-2.929c0.146,0.078 0.499,0.21 1.209,0.21c2.369,0 6.137,-1.409 9.164,-2.542c2.264,-0.847 4.219,-1.578 5.698,-1.823c0.428,-0.07 0.827,-0.138 1.207,-0.202c2.373,-0.402 4.087,-0.692 6.855,-0.692z" fill="#000000"/></g><g><path d="M238.90449,170.604c-6.492,0 -12.424,-1.768 -16.701,-4.978c-1.648,-1.238 -3.9,-3.697 -4.823,-6.557c-0.095,-0.292 -0.05,-0.611 0.121,-0.865c0.172,-0.254 0.45,-0.417 0.756,-0.439c1.152,-0.086 1.558,-0.951 2.088,-2.366c0.347,-0.925 0.674,-1.799 1.493,-2.172c0.194,-0.089 0.397,-0.134 0.604,-0.134c1.058,0 1.573,1.072 1.85,1.648c0.031,0.066 0.058,0.123 0.079,0.161c1.83,3.117 5.295,5.538 9.04,6.316c1.786,0.371 3.489,0.559 5.064,0.559c4.259,0 7.734,-1.376 10.329,-4.09c0.104,-0.109 0.286,-0.396 0.446,-0.649c0.565,-0.891 1.338,-2.111 2.592,-2.111c0.099,0 0.2,0.008 0.302,0.025c1.92,0.321 1.74,2.329 1.663,3.186c-0.019,0.206 -0.042,0.395 -0.031,0.542c0.085,1.206 0.986,1.798 2.447,2.666c0.267,0.158 0.535,0.317 0.798,0.484c0.308,0.195 0.485,0.542 0.463,0.906c-0.022,0.364 -0.241,0.687 -0.571,0.843c-0.851,0.402 -1.798,1.032 -2.634,1.588c-0.503,0.335 -0.955,0.634 -1.307,0.834c-3.481,1.978 -7.812,4.44 -13.087,4.589c-0.325,0.009 -0.652,0.014 -0.981,0.014z" fill="#00ae4b"/><path d="M222.44149,154.094c-0.061,0 -0.124,0.014 -0.188,0.043c-1.2,0.547 -0.95,4.405 -3.923,4.626c0.839,2.599 2.9,4.884 4.473,6.064c4.582,3.438 10.606,4.777 16.102,4.777c0.319,0 0.637,-0.005 0.953,-0.014c4.841,-0.137 8.799,-2.287 12.621,-4.459c0.927,-0.527 2.569,-1.778 4.008,-2.457c-1.662,-1.053 -3.558,-1.812 -3.708,-3.924c-0.057,-0.801 0.519,-2.592 -0.799,-2.812c-0.046,-0.008 -0.092,-0.011 -0.137,-0.011c-1.011,0 -1.746,1.856 -2.316,2.451c-3.047,3.188 -6.923,4.399 -11.051,4.399c-1.726,0 -3.496,-0.212 -5.268,-0.58c-4.021,-0.835 -7.699,-3.382 -9.699,-6.789c-0.167,-0.283 -0.537,-1.314 -1.068,-1.314M222.44149,152.094c1.687,0 2.433,1.552 2.751,2.215l0.059,0.12c1.674,2.85 4.885,5.089 8.363,5.812c1.719,0.356 3.354,0.538 4.86,0.538c4.031,0 7.173,-1.237 9.605,-3.781c0.052,-0.062 0.216,-0.322 0.325,-0.494c0.611,-0.963 1.633,-2.576 3.437,-2.576c0.155,0 0.312,0.013 0.466,0.039c1.294,0.216 2.776,1.13 2.495,4.262c-0.013,0.14 -0.03,0.332 -0.028,0.399c0.045,0.629 0.481,0.981 1.959,1.859c0.275,0.163 0.552,0.328 0.823,0.5c0.616,0.39 0.971,1.085 0.926,1.813c-0.045,0.728 -0.483,1.374 -1.143,1.685c-0.785,0.371 -1.699,0.979 -2.507,1.517c-0.52,0.346 -0.969,0.645 -1.367,0.871c-3.576,2.033 -8.028,4.563 -13.552,4.719c-0.334,0.01 -0.671,0.015 -1.009,0.015c-6.707,0 -12.852,-1.839 -17.302,-5.178c-1.851,-1.389 -4.182,-3.97 -5.176,-7.049c-0.188,-0.583 -0.099,-1.222 0.244,-1.73c0.342,-0.509 0.899,-0.833 1.511,-0.878c0.463,-0.034 0.681,-0.264 1.226,-1.719c0.384,-1.025 0.819,-2.187 2.017,-2.732c0.322,-0.152 0.666,-0.227 1.017,-0.227v0v0z" fill="#000000"/></g></g><g data-paper-data="{&quot;index&quot;:null}"><path d="M244.41049,138.333c3.498,1.948 6,6.682 5.513,11.614c-1.697,17.103 -28.705,12.541 -26.188,-3.225c0.548,-3.431 1.687,-5.704 5.018,-7.966c5.407,-3.673 12.677,-2.083 15.657,-0.423z" fill="#ffffff" stroke="#000000" stroke-width="2"/><g stroke="none" stroke-width="1"><path d="M227.61849,151.6l-0.416,-0.031c-0.667,-0.049 -9.275,-2.044 -9.973,-2.454l-1.49,-0.875l1.727,-0.056c0.988,-0.032 1.976,-0.076 2.963,-0.12c1.888,-0.084 3.84,-0.171 5.767,-0.171c0.581,0 1.162,0.007 1.743,0.025l0.625,0.02z" fill="#ff8900"/><path d="M226.19649,148.393c-2.906,0 -5.81,0.196 -8.713,0.291c0.528,0.31 8.97,2.329 9.756,2.387l0.685,-2.652c-0.576,-0.019 -1.152,-0.026 -1.728,-0.026M226.19649,147.393c0.586,0 1.172,0.008 1.758,0.026l1.251,0.039l-0.312,1.211l-0.686,2.652l-0.208,0.808l-0.833,-0.061c-0.715,-0.053 -9.426,-2.074 -10.188,-2.522l-2.981,-1.75l3.455,-0.112c0.985,-0.032 1.971,-0.076 2.956,-0.12c1.893,-0.085 3.85,-0.171 5.788,-0.171z" fill="#000000"/></g><g stroke="none" stroke-width="1"><path d="M220.67649,141.141c2.23,-3.638 8.51,-0.162 6.848,3.447c-2.118,4.592 -9.367,0.661 -6.848,-3.447zM223.52849,144.959c2.202,0.458 3.935,-1.962 1.884,-3.348c-3.331,-2.252 -4.659,2.772 -1.884,3.348z" fill="#000000"/><path d="M225.41249,141.611c2.051,1.386 0.318,3.806 -1.884,3.348c-2.775,-0.576 -1.447,-5.6 1.884,-3.348z" fill="#ffffff"/><path d="M222.68149,143.81c-0.49871,0 -0.903,-0.37563 -0.903,-0.839c0,-0.46337 0.40429,-0.839 0.903,-0.839c0.49871,0 0.903,0.37563 0.903,0.839c0,0.46337 -0.40429,0.839 -0.903,0.839z" fill="#000000"/></g><g stroke="none" stroke-width="1"><path d="M233.35549,143.576c2.871,-4.682 10.951,-0.209 8.811,4.436c-2.723,5.908 -12.051,0.85 -8.811,-4.436zM237.02749,148.489c2.833,0.588 5.062,-2.525 2.424,-4.309c-4.286,-2.896 -5.994,3.568 -2.424,4.309z" fill="#000000"/><path d="M239.45149,144.18c2.638,1.784 0.409,4.897 -2.424,4.309c-3.57,-0.741 -1.862,-7.205 2.424,-4.309z" fill="#ffffff"/><path d="M236.12949,147.154c-0.72073,0 -1.305,-0.54263 -1.305,-1.212c0,-0.66937 0.58427,-1.212 1.305,-1.212c0.72073,0 1.305,0.54263 1.305,1.212c0,0.66937 -0.58427,1.212 -1.305,1.212z" fill="#000000"/></g></g><g data-paper-data="{&quot;index&quot;:null}" stroke="none" stroke-width="1"><path d="M221.28149,127.301c3.753,0.407 11.221,4.783 13.18,5.091c7.94,-10.862 6.292,-20.904 9.584,-19.994c6.982,1.929 25.915,12.834 28.585,20.366c0.25,0.707 -0.232,0.675 -0.799,1.007c-3.674,0.921 -15.341,7.08 -16.432,10.342c1.963,1.268 9.022,6.097 10.27,7.372c-1.597,2.066 -3.868,3.826 -6.447,4.72c0,0 -6.896,-7.08 -40.222,-23.441c0.745,-1.826 1.205,-3.767 2.281,-5.463z" fill="#000000"/><path d="M262.82649,151.377l-3.666,2.595c0,0 -17.652,-13.061 -37.75,-21.677l0.615,-3.083c0,-0.001 20.468,7.332 40.801,22.165z" fill="#4853a9"/><path d="M249.92049,131.129c3.37,1.968 6.174,4.374 8.199,6.437c-1.975,1.313 -3.857,2.742 -5.57,4.373c-5.165,-2.756 -10.446,-5.487 -15.519,-8.38c0.585,-1.129 2.007,-4.146 3.452,-7.455c3.203,1.261 5.752,2.874 9.438,5.025z" fill="#8b94ed"/><path d="M250.57349,128.358c-1.512,-1.085 -5.701,-3.184 -9.065,-4.65c1.417,-3.375 2.665,-6.666 2.915,-8.256c2.351,-0.13 19.942,9.615 23.702,16.304c-2.769,1.532 -5.58,3.033 -8.264,4.694c-2.684,-3.099 -5.172,-5.122 -9.288,-8.092z" fill="#4853a9"/></g></g></g></svg>