<svg version="1.1" xmlns="http://www.w3.org/2000/svg" xmlns:xlink="http://www.w3.org/1999/xlink" width="137.98353" height="107.47536" viewBox="0,0,137.98353,107.47536"><g transform="translate(-171.59984,-135.52147)"><g data-paper-data="{&quot;isPaintingLayer&quot;:true}" fill-rule="nonzero" stroke-linecap="butt" stroke-linejoin="miter" stroke-miterlimit="10" stroke-dasharray="" stroke-dashoffset="0" style="mix-blend-mode: normal"><g data-paper-data="{&quot;index&quot;:null}" stroke="none" stroke-width="1"><path d="M213.13449,207.304c1.789,0.409 10.435,8.443 11.302,10.194c0.856,1.725 -8.206,15.606 -15.098,19.889c-2.314,-1.215 -19.584,-16.935 -15.231,-22.422c3.196,-4.029 8.169,0.558 10.685,2.264c0.957,-2.017 6.002,-10.461 8.342,-9.925z" fill="#000000"/><path d="M220.97549,217.381c-1.557,5.88 -4.755,11.095 -9.235,14.908c-4.746,-3.596 -11.658,-10.388 -14.003,-16.001c3.108,0.17 6.705,4.564 7.301,4.581c2.966,-3.251 5.177,-7.156 8.012,-10.525c0.931,0.491 7.071,5.896 7.925,7.037z" fill="#4853a9"/><path d="M210.53149,233.281l-1.493,1.471c-3.628,-3.663 -13.326,-11.176 -13.423,-16.711c-0.003,-0.174 0.179,-0.716 0.228,-0.906c1.051,4.52 10.671,13.661 14.688,16.146z" fill="#84a4f2"/></g><g data-paper-data="{&quot;index&quot;:null}" stroke="none" stroke-width="1"><path d="M194.96615,236.33716c-0.233,-0.007 -0.456,-0.096 -0.631,-0.25c-2.299,-2.031 -4.428,-4.186 -6.487,-6.269c-1.965,-1.989 -3.995,-4.043 -6.19,-6.008c-0.889,0.132 -1.741,0.455 -2.637,0.795c-1.243,0.472 -2.529,0.959 -4.006,0.959c-0.281,0 -0.566,-0.018 -0.858,-0.057c-0.43,-0.057 -0.774,-0.384 -0.852,-0.81c-0.078,-0.426 0.126,-0.853 0.507,-1.06c1.235,-0.67 2.586,-1.031 3.893,-1.381c0.446,-0.119 0.88,-0.236 1.304,-0.361c-1.588,-1.263 -4.2,-3.276 -5.903,-4.253c-0.401,-0.23 -0.592,-0.703 -0.464,-1.146c0.124,-0.429 0.518,-0.722 0.961,-0.722c0.014,0 0.028,0.001 0.042,0.001c5.043,0.214 8.883,4.415 11.979,7.879l3.765,-3.189c0.185,-0.157 0.415,-0.237 0.646,-0.237c0.181,0 0.364,0.049 0.526,0.15c0.369,0.228 0.548,0.668 0.444,1.089c-0.399,1.624 -1.542,2.675 -2.647,3.693c-0.251,0.23 -0.493,0.453 -0.723,0.679c0.734,0.753 2.541,2.168 3.922,3.25c1.487,1.164 3.019,2.364 4.101,3.358c0.86,-0.129 1.715,-0.443 2.612,-0.772c0.27,-0.099 0.542,-0.198 0.816,-0.294c0.107,-0.037 0.218,-0.056 0.329,-0.056c0.186,0 0.372,0.052 0.534,0.155c0.258,0.163 0.427,0.435 0.46,0.738l0.205,1.896c0.029,0.27 -0.053,0.541 -0.227,0.749c-0.174,0.208 -0.425,0.336 -0.696,0.356c-0.52,0.037 -1.096,0.246 -1.705,0.468c-0.837,0.304 -1.786,0.65 -2.865,0.65z" fill="#8e5c00"/><path d="M173.60115,216.77316c2.683,1.538 7.418,5.462 7.418,5.462c-2.168,0.955 -4.68,1.167 -6.731,2.28c0.247,0.033 0.489,0.048 0.727,0.048c2.456,0 4.479,-1.604 6.975,-1.798c4.678,4.137 8.443,8.539 13.008,12.57c0.041,0.001 0.083,0.002 0.124,0.002c1.658,0 3.052,-1.012 4.499,-1.116l-0.205,-1.896c-1.368,0.477 -2.683,1.061 -4.106,1.167c-2.737,-2.652 -9.896,-7.438 -8.812,-7.916c1.312,-1.432 3.08,-2.493 3.537,-4.349l-4.508,3.819c-3.139,-3.5 -6.962,-8.062 -11.926,-8.273M173.60015,214.77316c0.028,0 0.058,0 0.086,0.002c5.1,0.216 8.925,4.046 12.031,7.487l3.023,-2.561c0.371,-0.314 0.831,-0.474 1.293,-0.474c0.364,0 0.729,0.099 1.054,0.3c0.736,0.457 1.096,1.336 0.889,2.178c-0.463,1.878 -1.732,3.076 -2.872,4.125c0.864,0.744 2.125,1.731 3.069,2.471c1.338,1.048 2.713,2.125 3.783,3.07c0.629,-0.144 1.285,-0.385 1.968,-0.635c0.276,-0.102 0.553,-0.203 0.832,-0.3c0.214,-0.075 0.437,-0.111 0.658,-0.111c0.374,0 0.745,0.105 1.068,0.31c0.516,0.326 0.854,0.869 0.92,1.475l0.205,1.896c0.059,0.54 -0.105,1.08 -0.453,1.497c-0.348,0.417 -0.851,0.674 -1.392,0.713c-0.382,0.027 -0.894,0.213 -1.435,0.411c-0.87,0.316 -1.953,0.71 -3.208,0.71c-0.062,0 -0.123,-0.001 -0.186,-0.003c-0.466,-0.014 -0.913,-0.191 -1.263,-0.5c-2.324,-2.053 -4.466,-4.22 -6.537,-6.315c-1.844,-1.866 -3.745,-3.79 -5.779,-5.635c-0.643,0.147 -1.299,0.396 -1.981,0.655c-1.266,0.48 -2.7,1.024 -4.36,1.024c-0.331,0 -0.664,-0.022 -0.99,-0.065c-0.858,-0.114 -1.546,-0.768 -1.703,-1.62c-0.157,-0.852 0.252,-1.708 1.014,-2.121c1.136,-0.616 2.323,-0.981 3.49,-1.3c-1.409,-1.081 -3.044,-2.275 -4.219,-2.949c-0.8,-0.458 -1.183,-1.405 -0.926,-2.291c0.25,-0.858 1.035,-1.444 1.921,-1.444z" fill="#000000"/></g><g data-paper-data="{&quot;index&quot;:null}"><path d="M209.27449,186.341c6.583,-8.49 18.338,-12.622 28.934,-11.923c10.81,0.715 17.517,-0.198 27.982,12.622c4.363,5.343 4.339,14.388 3.133,20.736c-5.25,27.712 -60.833,18.247 -65.124,-2.657c-1.287,-6.279 0.7,-13.136 5.075,-18.778z" fill="#ffffff" stroke="#000000" stroke-width="2"/><path d="M214.81449,190.507c-1.44091,0 -2.609,-1.08616 -2.609,-2.426c0,-1.33984 1.16809,-2.426 2.609,-2.426c1.44091,0 2.609,1.08616 2.609,2.426c0,1.33984 -1.16809,2.426 -2.609,2.426z" fill="#8e5c00" stroke="none" stroke-width="1"/><path d="M210.92049,200.169c-1.43981,0 -2.607,-1.08616 -2.607,-2.426c0,-1.33984 1.16719,-2.426 2.607,-2.426c1.43981,0 2.607,1.08616 2.607,2.426c0,1.33984 -1.16719,2.426 -2.607,2.426z" fill="#8e5c00" stroke="none" stroke-width="1"/><path d="M211.64449,209.738c-1.44036,0 -2.608,-1.08616 -2.608,-2.426c0,-1.33984 1.16764,-2.426 2.608,-2.426c1.44036,0 2.608,1.08616 2.608,2.426c0,1.33984 -1.16764,2.426 -2.608,2.426z" fill="#8e5c00" stroke="none" stroke-width="1"/></g><g data-paper-data="{&quot;index&quot;:null}"><path d="M219.51249,164.432c4.072,-5.251 11.343,-7.807 17.896,-7.374c6.687,0.442 10.835,-0.124 17.308,7.806c2.699,3.306 2.684,8.9 1.938,12.827c-3.247,17.141 -37.627,11.286 -40.281,-1.644c-0.797,-3.883 0.433,-8.125 3.139,-11.615z" fill="#ffffff" stroke="#000000" stroke-width="2"/><path d="M221.47249,171.276c-1.44036,0 -2.608,-1.08571 -2.608,-2.425c0,-1.33929 1.16764,-2.425 2.608,-2.425c1.44036,0 2.608,1.08571 2.608,2.425c0,1.33929 -1.16764,2.425 -2.608,2.425z" fill="#8e5c00" stroke="none" stroke-width="1"/><path d="M220.47249,178.592c-1.44036,0 -2.608,-1.08571 -2.608,-2.425c0,-1.33929 1.16764,-2.425 2.608,-2.425c1.44036,0 2.608,1.08571 2.608,2.425c0,1.33929 -1.16764,2.425 -2.608,2.425z" fill="#8e5c00" stroke="none" stroke-width="1"/></g><g data-paper-data="{&quot;index&quot;:null}" stroke="none" stroke-width="1"><path d="M239.08449,220.059c1.221,-1.371 12.426,-5.076 14.378,-4.992c1.925,0.081 9.722,14.709 10.155,22.812c-2.18,1.443 -24.275,9.003 -26.987,2.545c-1.992,-4.741 4.425,-6.889 7.132,-8.272c-1.306,-1.809 -6.276,-10.298 -4.678,-12.093z" fill="#000000"/><path d="M251.69249,218.045c4.402,4.197 7.431,9.511 8.615,15.275c-5.438,2.426 -14.719,5.211 -20.768,4.562c1.647,-2.641 7.231,-3.676 7.531,-4.19c-1.42,-4.166 -3.776,-7.985 -5.363,-12.092c0.88,-0.58 8.574,-3.356 9.985,-3.555z" fill="#4853a9"/><path d="M260.59349,234.857l0.57,2.017c-4.958,1.414 -16.214,6.294 -21.11,3.712c-0.155,-0.081 -0.541,-0.502 -0.685,-0.637c4.468,1.257 17.113,-2.769 21.225,-5.092z" fill="#84a4f2"/></g><g data-paper-data="{&quot;index&quot;:null}" stroke="none" stroke-width="1"><path d="M301.11694,240.33852c-0.13055,0.11199 -0.28964,0.18917 -0.4597,0.22438c-0.29294,0.0563 -0.59418,-0.01994 -0.82442,-0.20847c-0.37433,-0.30735 -3.11469,-2.78927 -3.5725,-4.10011c-1.3607,-3.89467 -2.19632,-4.17917 -5.30622,-5.24265c-0.67724,-0.23196 -1.44235,-0.49263 -2.31812,-0.82701c-3.75064,-1.42951 -8.19737,-3.04846 -12.82876,-4.25604c-0.93559,0.34539 -1.8648,0.67213 -2.79042,0.99843c-1.99332,0.70201 -3.87731,1.36558 -5.80496,2.19175c-0.13935,0.06025 -0.34507,0.16294 -0.58842,0.28473c-1.77024,0.88219 -3.20011,1.51456 -4.15676,0.98606c-0.40618,-0.22469 -0.6659,-0.63036 -0.71403,-1.11344c-0.00784,-0.07364 -0.00711,-0.14805 0.00208,-0.22181l0.02422,-0.19601c0.03114,-0.24937 0.15405,-0.4747 0.34153,-0.63552c0.04782,-0.04102 0.1003,-0.07813 0.15658,-0.10929c3.90822,-2.22344 9.20026,-4.38495 12.95065,-5.80633c0.16289,-0.062 0.33871,-0.07975 0.51107,-0.05237c2.06335,0.32882 4.01577,1.264 5.90526,2.16884c1.53518,0.73447 2.98682,1.42992 4.46611,1.81049c0.70249,0.17999 1.3599,0.45795 1.99333,0.72485c1.37871,0.58279 2.07645,0.81561 2.50984,0.44383c0.1814,-0.15561 0.45319,-0.50996 0.71199,-1.31564c0.05146,-0.16272 0.10041,-0.3391 0.15197,-0.52167c0.23796,-0.85762 0.53452,-1.92492 1.34362,-2.61899c0.30664,-0.26304 0.66049,-0.448 1.0519,-0.54925c0.29304,-0.07615 0.60404,-0.01618 0.84696,0.1641c0.24292,0.18028 0.39304,0.46126 0.40401,0.76279c0.06101,1.51947 -0.50045,2.78634 -1.04382,4.01134c-0.24665,0.55414 -0.48333,1.08918 -0.65352,1.62648c1.03044,0.33345 1.7619,0.52417 2.91789,0.71831c1.09236,-0.53126 2.22634,-0.88345 3.32539,-1.22414c0.61178,-0.19146 1.22345,-0.38152 1.82534,-0.60139c0.32318,-0.11781 0.68417,-0.06253 0.95607,0.14692l0.21027,0.16218c0.41848,0.3235 0.51231,0.91362 0.21779,1.35204c-0.16304,0.23999 -0.3661,0.46557 -0.60367,0.66936c-1.1552,0.99096 -3.01642,1.37544 -4.51659,1.68471c0.28718,0.46379 0.64446,1.00316 0.99609,1.53287c2.125,3.20215 3.35916,5.24753 2.5882,6.65723c-0.05853,0.10686 -0.13594,0.20093 -0.22626,0.27841z" fill="#8e5c00"/><path d="M262.77155,228.98182l-0.02422,0.19601c0.11989,1.20413 3.2125,-0.61083 4.07043,-0.97919c2.97405,-1.27585 5.9208,-2.19494 8.93635,-3.31798c4.5202,1.15935 8.91192,2.71877 13.23924,4.369c5.02811,1.91732 6.37679,1.41916 8.21007,6.6726c0.30252,0.86565 2.49849,3.02932 3.26244,3.65726c0.82602,-1.50832 -3.57589,-6.65978 -4.20154,-8.39975c1.46998,-0.39669 4.07598,-0.65325 5.36021,-1.7549c0.16546,-0.14194 0.30858,-0.29764 0.42533,-0.47025l-0.21027,-0.16218c-1.77391,0.65214 -3.63914,1.04269 -5.33834,1.92323c-1.74206,-0.27374 -2.60696,-0.53708 -4.26116,-1.09698c0.35577,-2.21164 1.97662,-3.99598 1.88506,-6.25604c-0.25682,0.06616 -0.47088,0.18523 -0.65228,0.34084c-0.72864,0.62504 -0.92286,1.84698 -1.19499,2.6878c-0.28102,0.87347 -0.62181,1.43459 -1.01194,1.76925c-1.37076,1.17587 -3.34133,-0.43017 -5.40227,-0.95737c-3.47536,-0.89359 -6.77119,-3.40099 -10.28134,-3.96038c-4.0008,1.51498 -9.06715,3.60937 -12.81075,5.73903M261.46937,227.46381c0.09639,-0.08269 0.2006,-0.15627 0.31327,-0.21998c3.96385,-2.25535 9.30718,-4.43846 13.09043,-5.87223c0.32643,-0.12324 0.67958,-0.16004 1.02355,-0.10464c2.20632,0.35111 4.22578,1.31837 6.1796,2.25366c1.49135,0.71409 2.89993,1.38852 4.28463,1.74483c0.77343,0.19819 1.4955,0.50237 2.13295,0.77241c0.48297,0.20362 1.1906,0.50173 1.5223,0.5413c0.07144,-0.09949 0.20671,-0.32884 0.35751,-0.79812c0.04777,-0.15165 0.09283,-0.31415 0.14049,-0.48283c0.25897,-0.93757 0.61586,-2.21868 1.6557,-3.11067c0.42352,-0.36331 0.91119,-0.61958 1.45162,-0.75907c0.58533,-0.15165 1.20862,-0.03019 1.69446,0.33037c0.48455,0.35905 0.78131,0.92002 0.80671,1.52405c0.07075,1.75353 -0.56613,3.19051 -1.12976,4.45793c-0.08583,0.19484 -0.16992,0.38555 -0.25163,0.5729c0.462,0.12542 0.91575,0.22894 1.46072,0.32667c1.06255,-0.4846 2.13037,-0.81562 3.16923,-1.13893c0.6211,-0.19288 1.20881,-0.37555 1.7773,-0.58521c0.64582,-0.23779 1.36846,-0.12646 1.91279,0.2946l0.21027,0.16218c0.8363,0.64623 1.02582,1.83017 0.43351,2.70322c-0.21062,0.31507 -0.47332,0.60629 -0.7792,0.86868c-0.9738,0.83535 -2.28605,1.28382 -3.54652,1.59301c0.07185,0.10833 0.14185,0.21297 0.20794,0.31306c2.01181,3.03179 3.74893,5.64968 2.63253,7.69035c-0.11782,0.21437 -0.27122,0.40262 -0.45262,0.55823c-0.26034,0.22332 -0.57721,0.3792 -0.922,0.44572c-0.58523,0.11336 -1.18977,-0.03999 -1.65079,-0.41922c-0.03201,-0.02656 -3.27729,-2.81447 -3.88115,-4.54285c-1.1988,-3.43408 -1.66385,-3.59378 -4.68469,-4.62562c-0.68212,-0.23304 -1.45482,-0.49642 -2.3512,-0.83947c-3.64389,-1.38801 -7.94624,-2.95691 -12.42328,-4.14274c-0.83973,0.30663 -1.67566,0.60079 -2.50802,0.89452c-1.97802,0.6968 -3.84662,1.35374 -5.74358,2.16808c-0.12688,0.05482 -0.31427,0.1497 -0.53626,0.26107c-2.03712,1.01495 -3.70384,1.7306 -5.08642,0.96668c-0.69812,-0.38532 -1.14462,-1.07477 -1.22553,-1.88942c-0.01492,-0.14794 -0.01205,-0.29665 0.00558,-0.44352l0.02422,-0.19601c0.0638,-0.50005 0.31114,-0.95201 0.68533,-1.273z" fill="#000000"/></g><g data-paper-data="{&quot;index&quot;:null}" stroke="none" stroke-width="1"><path d="M309.57534,224.73732c-0.228,1.628 -4.75,1.053 -6.14,-0.109c1.68,-0.885 6.368,-1.519 6.14,0.109z" fill="#000000"/><path d="M308.57634,227.36732c-0.277,1.815 -6.447,-0.212 -6.447,-0.212c0,0 6.724,-1.603 6.447,0.212z" fill="#000000"/><path d="M307.30134,230.25332c-0.26,1.923 -6.754,-1.372 -6.754,-1.372c0,0 7.014,-0.552 6.754,1.372z" fill="#000000"/><path d="M306.50534,232.96532c-0.181,2.117 -6.618,-1.273 -6.618,-1.273c0,0 6.8,-0.844 6.618,1.273z" fill="#000000"/><path d="M305.92234,235.84932c-0.181,2.117 -6.618,-1.273 -6.618,-1.273c0,0 6.799,-0.844 6.618,1.273z" fill="#000000"/><g><path d="M298.66634,236.47732c-0.317,0 -0.664,-0.04 -1.014,-0.081c-0.198,-0.024 -0.396,-0.049 -0.586,-0.061c-4.129,-0.266 -8.306,-1.427 -12.204,-2.642c-1.588,-0.495 -3.306,-0.735 -5.251,-0.735c-1.878,0 -3.556,0.224 -4.904,0.405c-0.872,0.117 -1.561,0.209 -2.085,0.209c-0.253,0 -0.464,-0.022 -0.649,-0.067c-0.097,-0.025 -0.196,-0.037 -0.293,-0.037c-0.189,0 -0.348,0.044 -0.468,0.093c-0.334,0.283 -0.584,0.427 -0.918,0.427l-0.794,-0.003l-0.184,-0.767c-0.126,-0.523 0.132,-0.969 0.766,-1.327c0,0 0.16,-0.151 0.204,-0.197c-0.065,-0.067 -0.14,-0.142 -0.206,-0.208c-0.145,-0.144 -0.308,-0.308 -0.485,-0.498c-0.947,-1.022 -0.226,-2.212 0.161,-2.851c0.132,-0.216 0.351,-0.579 0.361,-0.712c-0.001,0.023 0.01,0.076 0.033,0.108l1.283,-1.465c0.408,0.218 0.973,0.328 1.681,0.328c2.55,0 6.25,-1.384 9.515,-2.605c2.215,-0.828 4.128,-1.544 5.513,-1.773l1.208,-0.202c2.325,-0.393 4.005,-0.677 6.689,-0.677c1.877,0 6.394,0.224 7.798,2.289c0.342,0.502 0.657,1.337 0.213,2.459c-0.674,1.69 -1.257,2.077 -1.895,2.377c-0.234,0.11 -0.436,0.205 -0.823,1.191c-0.244,0.873 -0.228,1.627 -0.211,2.425c0.021,0.975 0.045,2.08 -0.441,3.368c-0.206,0.561 -0.722,1.229 -2.014,1.229z" fill="#00ae4b"/><path d="M296.03934,222.13832c-3.029,0 -4.707,0.368 -7.735,0.866c-3.299,0.547 -10.71,4.392 -15.189,4.392c-0.834,0 -1.566,-0.133 -2.152,-0.446c0.745,1.04 -1.495,2.428 -0.634,3.357c1.026,1.105 1.585,1.245 0.467,2.285c-0.047,0.044 -0.092,0.084 -0.132,0.12c0.246,-0.125 0.598,-0.245 1.017,-0.245c0.167,0 0.346,0.02 0.533,0.065c0.108,0.026 0.245,0.038 0.41,0.038c1.2,0 3.844,-0.615 6.99,-0.615c1.749,0 3.652,0.19 5.549,0.781c3.812,1.188 7.941,2.339 11.971,2.599c0.501,0.032 1.058,0.141 1.534,0.141c0.498,0 0.909,-0.12 1.075,-0.574c0.793,-2.101 0.022,-3.552 0.628,-5.718c1.124,-2.902 1.587,-0.746 2.752,-3.669c1.069,-2.706 -3.986,-3.377 -7.084,-3.377M270.66334,232.71332c-0.265,0.134 -0.404,0.274 -0.37,0.274c0.026,0 0.143,-0.073 0.37,-0.274M296.03934,220.13832c2.529,0 7.012,0.354 8.625,2.726c0.675,0.994 0.788,2.197 0.317,3.388c-0.73,1.833 -1.46,2.474 -2.4,2.917c-0.001,0 -0.002,0.001 -0.003,0.001c-0.053,0.084 -0.158,0.272 -0.306,0.644c-0.179,0.694 -0.166,1.322 -0.15,2.044c0.022,1.065 0.049,2.273 -0.509,3.751c-0.202,0.55 -0.905,1.868 -2.946,1.868c-0.4,0 -0.79,-0.047 -1.133,-0.089c-0.179,-0.022 -0.357,-0.045 -0.528,-0.056c-4.234,-0.273 -8.48,-1.452 -12.438,-2.685c-1.491,-0.465 -3.111,-0.69 -4.954,-0.69c-1.812,0 -3.453,0.22 -4.771,0.396c-0.909,0.122 -1.627,0.218 -2.219,0.218c-0.334,0 -0.624,-0.031 -0.886,-0.096c-0.021,-0.005 -0.038,-0.007 -0.054,-0.008c-0.33,0.255 -0.787,0.52 -1.39,0.52h-1.577l-0.373,-1.537c-0.086,-0.359 -0.16,-1.122 0.476,-1.829c-1.395,-1.565 -0.324,-3.333 0.081,-4.002c0.088,-0.145 0.221,-0.364 0.252,-0.447c-0.055,0.147 -0.083,0.571 0.184,0.944l2.569,-2.929c0.146,0.078 0.499,0.21 1.209,0.21c2.369,0 6.137,-1.409 9.164,-2.542c2.264,-0.847 4.219,-1.578 5.698,-1.823c0.428,-0.07 0.827,-0.138 1.207,-0.202c2.373,-0.402 4.087,-0.692 6.855,-0.692z" fill="#000000"/></g><g><path d="M263.12334,238.13732c-6.492,0 -12.424,-1.768 -16.701,-4.978c-1.648,-1.238 -3.9,-3.697 -4.823,-6.557c-0.095,-0.292 -0.05,-0.611 0.121,-0.865c0.172,-0.254 0.45,-0.417 0.756,-0.439c1.152,-0.086 1.558,-0.951 2.088,-2.366c0.347,-0.925 0.674,-1.799 1.493,-2.172c0.194,-0.089 0.397,-0.134 0.604,-0.134c1.058,0 1.573,1.072 1.85,1.648c0.031,0.066 0.058,0.123 0.079,0.161c1.83,3.117 5.295,5.538 9.04,6.316c1.786,0.371 3.489,0.559 5.064,0.559c4.259,0 7.734,-1.376 10.329,-4.09c0.104,-0.109 0.286,-0.396 0.446,-0.649c0.565,-0.891 1.338,-2.111 2.592,-2.111c0.099,0 0.2,0.008 0.302,0.025c1.92,0.321 1.74,2.329 1.663,3.186c-0.019,0.206 -0.042,0.395 -0.031,0.542c0.085,1.206 0.986,1.798 2.447,2.666c0.267,0.158 0.535,0.317 0.798,0.484c0.308,0.195 0.485,0.542 0.463,0.906c-0.022,0.364 -0.241,0.687 -0.571,0.843c-0.851,0.402 -1.798,1.032 -2.634,1.588c-0.503,0.335 -0.955,0.634 -1.307,0.834c-3.481,1.978 -7.812,4.44 -13.087,4.589c-0.325,0.009 -0.652,0.014 -0.981,0.014z" fill="#00ae4b"/><path d="M246.66034,221.62732c-0.061,0 -0.124,0.014 -0.188,0.043c-1.2,0.547 -0.95,4.405 -3.923,4.626c0.839,2.599 2.9,4.884 4.473,6.064c4.582,3.438 10.606,4.777 16.102,4.777c0.319,0 0.637,-0.005 0.953,-0.014c4.841,-0.137 8.799,-2.287 12.621,-4.459c0.927,-0.527 2.569,-1.778 4.008,-2.457c-1.662,-1.053 -3.558,-1.812 -3.708,-3.924c-0.057,-0.801 0.519,-2.592 -0.799,-2.812c-0.046,-0.008 -0.092,-0.011 -0.137,-0.011c-1.011,0 -1.746,1.856 -2.316,2.451c-3.047,3.188 -6.923,4.399 -11.051,4.399c-1.726,0 -3.496,-0.212 -5.268,-0.58c-4.021,-0.835 -7.699,-3.382 -9.699,-6.789c-0.167,-0.283 -0.537,-1.314 -1.068,-1.314M246.66034,219.62732c1.687,0 2.433,1.552 2.751,2.215l0.059,0.12c1.674,2.85 4.885,5.089 8.363,5.812c1.719,0.356 3.354,0.538 4.86,0.538c4.031,0 7.173,-1.237 9.605,-3.781c0.052,-0.062 0.216,-0.322 0.325,-0.494c0.611,-0.963 1.633,-2.576 3.437,-2.576c0.155,0 0.312,0.013 0.466,0.039c1.294,0.216 2.776,1.13 2.495,4.262c-0.013,0.14 -0.03,0.332 -0.028,0.399c0.045,0.629 0.481,0.981 1.959,1.859c0.275,0.163 0.552,0.328 0.823,0.5c0.616,0.39 0.971,1.085 0.926,1.813c-0.045,0.728 -0.483,1.374 -1.143,1.685c-0.785,0.371 -1.699,0.979 -2.507,1.517c-0.52,0.346 -0.969,0.645 -1.367,0.871c-3.576,2.033 -8.028,4.563 -13.552,4.719c-0.334,0.01 -0.671,0.015 -1.009,0.015c-6.707,0 -12.852,-1.839 -17.302,-5.178c-1.851,-1.389 -4.182,-3.97 -5.176,-7.049c-0.188,-0.583 -0.099,-1.222 0.244,-1.73c0.342,-0.509 0.899,-0.833 1.511,-0.878c0.463,-0.034 0.681,-0.264 1.226,-1.719c0.384,-1.025 0.819,-2.187 2.017,-2.732c0.322,-0.152 0.666,-0.227 1.017,-0.227z" fill="#000000"/></g></g><g data-paper-data="{&quot;index&quot;:null}"><path d="M244.41049,138.333c3.498,1.948 6,6.682 5.513,11.614c-1.697,17.103 -28.705,12.541 -26.188,-3.225c0.548,-3.431 1.687,-5.704 5.018,-7.966c5.407,-3.673 12.677,-2.083 15.657,-0.423z" fill="#ffffff" stroke="#000000" stroke-width="2"/><g stroke="none" stroke-width="1"><path d="M227.61849,151.6l-0.416,-0.031c-0.667,-0.049 -9.275,-2.044 -9.973,-2.454l-1.49,-0.875l1.727,-0.056c0.988,-0.032 1.976,-0.076 2.963,-0.12c1.888,-0.084 3.84,-0.171 5.767,-0.171c0.581,0 1.162,0.007 1.743,0.025l0.625,0.02z" fill="#ff8900"/><path d="M226.19649,148.393c-2.906,0 -5.81,0.196 -8.713,0.291c0.528,0.31 8.97,2.329 9.756,2.387l0.685,-2.652c-0.576,-0.019 -1.152,-0.026 -1.728,-0.026M226.19649,147.393c0.586,0 1.172,0.008 1.758,0.026l1.251,0.039l-0.312,1.211l-0.686,2.652l-0.208,0.808l-0.833,-0.061c-0.715,-0.053 -9.426,-2.074 -10.188,-2.522l-2.981,-1.75l3.455,-0.112c0.985,-0.032 1.971,-0.076 2.956,-0.12c1.893,-0.085 3.85,-0.171 5.788,-0.171z" fill="#000000"/></g><g stroke="none" stroke-width="1"><path d="M220.67649,141.141c2.23,-3.638 8.51,-0.162 6.848,3.447c-2.118,4.592 -9.367,0.661 -6.848,-3.447zM223.52849,144.959c2.202,0.458 3.935,-1.962 1.884,-3.348c-3.331,-2.252 -4.659,2.772 -1.884,3.348z" fill="#000000"/><path d="M225.41249,141.611c2.051,1.386 0.318,3.806 -1.884,3.348c-2.775,-0.576 -1.447,-5.6 1.884,-3.348z" fill="#ffffff"/><path d="M222.68149,143.81c-0.49871,0 -0.903,-0.37563 -0.903,-0.839c0,-0.46337 0.40429,-0.839 0.903,-0.839c0.49871,0 0.903,0.37563 0.903,0.839c0,0.46337 -0.40429,0.839 -0.903,0.839z" fill="#000000"/></g><g stroke="none" stroke-width="1"><path d="M233.35549,143.576c2.871,-4.682 10.951,-0.209 8.811,4.436c-2.723,5.908 -12.051,0.85 -8.811,-4.436zM237.02749,148.489c2.833,0.588 5.062,-2.525 2.424,-4.309c-4.286,-2.896 -5.994,3.568 -2.424,4.309z" fill="#000000"/><path d="M239.45149,144.18c2.638,1.784 0.409,4.897 -2.424,4.309c-3.57,-0.741 -1.862,-7.205 2.424,-4.309z" fill="#ffffff"/><path d="M236.12949,147.154c-0.72073,0 -1.305,-0.54263 -1.305,-1.212c0,-0.66937 0.58427,-1.212 1.305,-1.212c0.72073,0 1.305,0.54263 1.305,1.212c0,0.66937 -0.58427,1.212 -1.305,1.212z" fill="#000000"/></g></g><g data-paper-data="{&quot;index&quot;:null}" stroke="none" stroke-width="1"><path d="M202.65161,209.27248c3.753,0.407 11.221,4.783 13.18,5.091c7.94,-10.862 6.292,-20.904 9.584,-19.994c6.982,1.929 25.915,12.834 28.585,20.366c0.25,0.707 -0.232,0.675 -0.799,1.007c-3.674,0.921 -15.341,7.08 -16.432,10.342c1.963,1.268 9.022,6.097 10.27,7.372c-1.597,2.066 -3.868,3.826 -6.447,4.72c0,0 -6.896,-7.08 -40.222,-23.441c0.745,-1.826 1.205,-3.767 2.281,-5.463z" fill="#000000"/><path d="M244.19661,233.34848l-3.666,2.595c0,0 -17.652,-13.061 -37.75,-21.677l0.615,-3.083c0,-0.001 20.468,7.332 40.801,22.165z" fill="#4853a9"/><path d="M231.29061,213.10048c3.37,1.968 6.174,4.374 8.199,6.437c-1.975,1.313 -3.857,2.742 -5.57,4.373c-5.165,-2.756 -10.446,-5.487 -15.519,-8.38c0.585,-1.129 2.007,-4.146 3.452,-7.455c3.203,1.261 5.752,2.874 9.438,5.025z" fill="#8b94ed"/><path d="M231.94361,210.32948c-1.512,-1.085 -5.701,-3.184 -9.065,-4.65c1.417,-3.375 2.665,-6.666 2.915,-8.256c2.351,-0.13 19.942,9.615 23.702,16.304c-2.769,1.532 -5.58,3.033 -8.264,4.694c-2.684,-3.099 -5.172,-5.122 -9.288,-8.092z" fill="#4853a9"/></g></g></g></svg>